<?xml version="1.0" encoding="UTF-8" standalone="no"?>
<!-- Created with Inkscape (http://www.inkscape.org/) -->

<svg
   xmlns:dc="http://purl.org/dc/elements/1.1/"
   xmlns:cc="http://creativecommons.org/ns#"
   xmlns:rdf="http://www.w3.org/1999/02/22-rdf-syntax-ns#"
   xmlns:svg="http://www.w3.org/2000/svg"
   xmlns="http://www.w3.org/2000/svg"
   xmlns:sodipodi="http://sodipodi.sourceforge.net/DTD/sodipodi-0.dtd"
   xmlns:inkscape="http://www.inkscape.org/namespaces/inkscape"
   width="42.673218mm"
   height="51.715515mm"
   viewBox="0 0 42.673217 51.715515"
   version="1.1"
   id="svg5"
   inkscape:version="0.92.4 (5da689c313, 2019-01-14)"
   sodipodi:docname="symbol.svg">
  <metadata
     id="metadata75">
    <rdf:RDF>
      <cc:Work
         rdf:about="">
        <dc:format>image/svg+xml</dc:format>
        <dc:type
           rdf:resource="http://purl.org/dc/dcmitype/StillImage" />
        <dc:title></dc:title>
      </cc:Work>
    </rdf:RDF>
  </metadata>
  <sodipodi:namedview
     id="namedview7"
     pagecolor="#ffffff"
     bordercolor="#cccccc"
     borderopacity="1"
     inkscape:pageshadow="0"
     inkscape:pageopacity="1"
     inkscape:pagecheckerboard="0"
     inkscape:document-units="mm"
     showgrid="false"
     inkscape:zoom="1.4142136"
     inkscape:cx="225.35958"
     inkscape:cy="196.69084"
     inkscape:window-width="1920"
     inkscape:window-height="1046"
     inkscape:window-x="-11"
     inkscape:window-y="-11"
     inkscape:window-maximized="1"
     inkscape:current-layer="svg5" />
  <defs
     id="defs2">
    <clipPath
       id="clip0">
      <rect
         x="1"
         y="3"
         width="1251"
         height="724"
         id="rect824" />
    </clipPath>
  </defs>
  <g
     id="g1633"
     transform="translate(309.50765,52.761411)"
     style="stroke:#fefefe;stroke-opacity:1">
    <path
       id="path887"
       stroke-miterlimit="8"
       d="m -307.70443,-50.972425 c -0.3177,7.91475 1.328,10.42141 4.186,13.24345 2.8583,2.82205 5.87,3.67427 12.9625,3.68856 12.2306,0.0243 16.8727,-6.01715 16.9431,-10.50687 0.071,-4.48998 -4.9779,-6.46086 -11.0009,-6.42593 -6.0229,0.0349 -8.7135,1.964 -10.7516,3.06625 -2.038,1.10199 -4.1105,3.32158 -1.4769,3.54701 2.6337,0.22542 12.3169,0.17251 14.6474,0.17568"
       style="fill:none;fill-rule:evenodd;stroke:#fefefe;stroke-width:3.52776885;stroke-linecap:round;stroke-miterlimit:8;stroke-opacity:1"
       inkscape:connector-curvature="0" />
    <path
       id="path889"
       stroke-miterlimit="8"
       d="m -290.28083,-45.682085 -0.2645,11.1125"
       style="fill:none;fill-rule:evenodd;stroke:#fefefe;stroke-width:3.52776885;stroke-linecap:round;stroke-miterlimit:8;stroke-opacity:1"
       inkscape:connector-curvature="0" />
    <path
       id="path891"
       stroke-miterlimit="8"
       d="m -290.54533,-45.660385 c -0.3721,-1.70074 -3.9577,-0.29845 -5.0271,0.24289"
       style="fill:none;fill-rule:evenodd;stroke:#fefefe;stroke-width:3.52776885;stroke-linecap:round;stroke-miterlimit:8;stroke-opacity:1"
       inkscape:connector-curvature="0" />
    <path
       id="path893"
       stroke-miterlimit="8"
       d="m -285.05233,-34.304995 c -5.5481,5.06306 -12.3619,10.95639 -14.019,12.29889 -1.6571,1.34276 3.5894,-3.18082 5.9288,-3.32052 2.3392,-0.1397 5.1874,0.01 8.0283,-0.0616 1.3493,0.0384 -12.1235,12.24306 -12.4132,12.29889 -13.1316,0.004 23.7982,0.32702 28.5863,0.43788 1.6315,0.003 -13.8739,4.5632695 -8.6386,4.9739095 5.0948,0.39952 11.9134,3.08795 7.6578,4.85801"
       style="fill:none;fill-rule:evenodd;stroke:#fefefe;stroke-width:3.52776885;stroke-linecap:round;stroke-miterlimit:8;stroke-opacity:1"
       inkscape:connector-curvature="0" />
  </g>
</svg>
