<?xml version="1.0" encoding="UTF-8" standalone="no"?>
<svg
   xmlns:dc="http://purl.org/dc/elements/1.1/"
   xmlns:cc="http://creativecommons.org/ns#"
   xmlns:rdf="http://www.w3.org/1999/02/22-rdf-syntax-ns#"
   xmlns:svg="http://www.w3.org/2000/svg"
   xmlns="http://www.w3.org/2000/svg"
   xmlns:xlink="http://www.w3.org/1999/xlink"
   xmlns:sodipodi="http://sodipodi.sourceforge.net/DTD/sodipodi-0.dtd"
   xmlns:inkscape="http://www.inkscape.org/namespaces/inkscape"
   version="1.1"
   preserveAspectRatio="none"
   x="0px"
   y="0px"
   width="800px"
   height="800px"
   viewBox="0 0 800 800"
   id="svg101"
   sodipodi:docname="MV_logo_fixed.svg"
   inkscape:version="0.92.4 (5da689c313, 2019-01-14)">
  <metadata
     id="metadata105">
    <rdf:RDF>
      <cc:Work
         rdf:about="">
        <dc:format>image/svg+xml</dc:format>
        <dc:type
           rdf:resource="http://purl.org/dc/dcmitype/StillImage" />
        <dc:title></dc:title>
      </cc:Work>
    </rdf:RDF>
  </metadata>
  <sodipodi:namedview
     pagecolor="#ffffff"
     bordercolor="#666666"
     borderopacity="1"
     objecttolerance="10"
     gridtolerance="10"
     guidetolerance="10"
     inkscape:pageopacity="0"
     inkscape:pageshadow="2"
     inkscape:window-width="1920"
     inkscape:window-height="1046"
     id="namedview103"
     showgrid="false"
     inkscape:zoom="0.65208743"
     inkscape:cx="362.55669"
     inkscape:cy="426.20703"
     inkscape:window-x="-11"
     inkscape:window-y="-11"
     inkscape:window-maximized="1"
     inkscape:current-layer="svg101" />
  <defs
     id="defs49">
    <g
       id="Layer6_0_FILL">
      <path
         fill="#7AEC3B"
         stroke="none"
         d=" M 116.2 536.4 L 53.45 570.3 Q -398.916015625 532.4498046875 31.15 823.75 L 23.4 823.75 22.25 836.25 104.8 823.75 112.55 823.75 Q 843.57421875 900.0962890625 717.45 732 L 588.65 639.25 623.25 579.8 417.15 403 183.2 590.75 116.2 536.4 Z"
         id="path2" />
      <path
         fill="#48BBE1"
         stroke="none"
         d=" M 370.05 232 L 397.05 192.6 384.6 -46.3 -97.85 -46.3 Q -275.5638671875 525.1587890625 53.45 570.3 L 116.2 536.4 183.2 590.75 417.15 403 370.05 232 Z"
         id="path4" />
      <path
         fill="#ED7CB0"
         stroke="none"
         d=" M 397.05 192.6 L 370.05 232 417.15 403 623.25 579.8 588.65 639.25 717.45 732 858.75 814.95 830.4 -103.45 384.6 -46.3 397.05 192.6 Z"
         id="path6" />
    </g>
    <g
       id="Layer5_0_FILL">
      <path
         fill="#000000"
         stroke="none"
         d=" M 600.3 587.55 L 577.6 626.2 739.4 838.75 759.3 721.75 612.85 618.45 650.75 568.35 417.15 403 600.3 587.55 M 164.6 549.75 L 74.55 486.15 -43.45 524.8 -43.45 624.85 93.3 571.35 150.45 617 417.15 403 164.6 549.75 M 392.65 215.45 L 433.05 207.8 422.8 5.85 284.75 -11.35 397.05 192.6 327.9 220 417.15 403 392.65 215.45 Z"
         id="path9" />
    </g>
    <g
       id="Layer4_0_FILL">
      <path
         fill="#FFFFFF"
         stroke="none"
         d=" M 569.6 455.55 L 508.75 495.3 417.15 403 500.3 549.8 569 478.7 741.55 826.2 833.5 793.1 569.6 455.55 M 178.4 563.65 L 118.85 460.85 -26.55 519.3 -11.55 664.05 116.2 536.4 186.9 619.15 417.15 403 178.4 563.65 M 425.45 -9.4 L 308.7 -9.4 399.15 100.3 326.9 258.15 427.4 318.3 417.15 403 444.4 302.05 370.05 232 448.25 132.05 425.45 -9.4 Z"
         id="path12" />
    </g>
    <g
       id="Layer3_0_FILL">
      <path
         fill="#FFFFFF"
         stroke="none"
         d=" M 706.7 353.1 Q 733.85 326.15 733.85 287.85 733.85 249.6 706.7 222.55 679.75 195.5 641.45 195.5 608.3 195.5 583.5 215.85 567.75 259.15 552.8 314.45 559.05 336 576.15 353.1 603.2 380.25 641.45 380.25 679.75 380.25 706.7 353.1 M 592.75 308.9 Q 599 308.9 603.45 313.25 607.8 317.7 607.8 323.95 607.8 330.15 603.45 334.55 599 338.9 592.75 338.9 586.55 338.9 582.15 334.55 577.8 330.15 577.8 323.95 577.8 317.7 582.15 313.25 586.55 308.9 592.75 308.9 Z"
         id="path15" />
      <path
         fill="#000000"
         stroke="none"
         d=" M 603.45 313.25 Q 599 308.9 592.75 308.9 586.55 308.9 582.15 313.25 577.8 317.7 577.8 323.95 577.8 330.15 582.15 334.55 586.55 338.9 592.75 338.9 599 338.9 603.45 334.55 607.8 330.15 607.8 323.95 607.8 317.7 603.45 313.25 M 734.5 64.05 Q 737.9 65.5 741.4 67.55 737.9 65.5 734.5 64.05 L 782.6 147.55 747.6 168.8 684.25 62.6 Q 630.7 85.5 583.5 215.85 608.3 195.5 641.45 195.5 679.75 195.5 706.7 222.55 733.85 249.6 733.85 287.85 733.85 326.15 706.7 353.1 679.75 380.25 641.45 380.25 603.2 380.25 576.15 353.1 559.05 336 552.8 314.45 548.75 329.25 544.8 344.85 L 525.7 320.4 544.8 344.85 Q 548.75 329.25 552.8 314.45 567.75 259.15 583.5 215.85 630.7 85.5 684.25 62.6 L 663.65 28 426.4 409.55 444 422 562.25 411.55 494.55 457.75 504.65 464.9 581.55 409.85 712.25 398.25 668.55 480.55 767.4 495.1 Q 732.1 564.9 767.4 593.25 L 781.25 484.95 683.85 471.1 723.3 397.25 875.9 383.75 793.1 245 822.25 223.9 874.6 313.05 1030.2 215.4 884.45 -64.75 723.2 44.25 734.5 64.05 M 917.05 105.05 L 825 161.65 768.4 62.6 858.2 0.75 917.05 105.05 Z"
         id="path17" />
    </g>
    <g
       id="Layer2_0_FILL">
      <path
         fill="#000000"
         stroke="none"
         d=" M 327.9 220 L 338.25 215.85 Q 308.363671875 108.62265625 193.85 69.7 54.35 33.65 -44.35 180.15 -91.95 258.95 -118.55 379.35 -136.7 479.85 26.15 498.15 70.740234375 341.3392578125 314.75 462.5 L 417.15 403 Q 400.5794921875 369.0234375 384 335.05 383.7349609375 334.501171875 383.45 333.95 L 382.9 332.85 348.5 317.9 Q 349.5142578125 293.125 347.7 270.6 L 326.9 258.15 336.4 237.4 327.9 220 M 197.55 167.55 L 183.2 186.65 307.85 201.8 183.2 186.65 197.55 167.55 M 52.25 170.75 Q 55.8 160.5 76.15 159.25 96.45 158.05 121.5 166.7 146.65 175.4 161.9 188.75 176.95 202.05 173.75 212.35 178.9 200.95 196.95 197.1 216.15 193.2 238.6 200.1 261.1 207.1 273.7 220.9 286.3 234.9 281.6 247.4 276.95 260.05 257.85 263.95 238.6 267.9 216.2 260.95 193.7 254 181.05 240 168.55 226.45 172.95 214.1 168.5 223 149.8 224.05 129.5 225.3 104.3 216.65 79.2 208 63.95 194.55 48.65 181.05 52.25 170.75 M 145 296.95 L 81.25 244.45 Q 122.75 232.25 164.45 234.85 196.2 257.45 224.15 288.25 L 145 296.95 M 79.8 100.4 Q 250.55 40 188 139.4 250.55 40 79.8 100.4 M 225.85 231.85 Q 226.95 229.2 224.35 225.75 221.65 222.4 216.65 220.25 213.45 218.9 210.5 218.5 208.95 218.35 207.45 218.4 203.2 218.9 202.05 221.5 201.6 222.45 201.75 223.6 201.95 225.4 203.6 227.5 206.2 230.85 211.15 232.95 216.15 235.1 220.4 234.8 224.7 234.45 225.85 231.85 M 157 200.05 Q 156.05 199.65 155.15 199.3 151.15 197.95 147.8 198.25 143.45 198.6 142.25 201.25 141.15 203.95 143.8 207.3 144.65 208.35 145.7 209.3 148 211.35 151.5 212.8 156.4 214.95 160.7 214.6 164.95 214.3 166.1 211.6 167.3 208.95 164.65 205.6 161.95 202.2 157 200.05 Z"
         id="path20" />
      <path
         fill="#FFFFFF"
         stroke="none"
         d=" M 81.25 244.45 L 145 296.95 224.15 288.25 Q 196.2 257.45 164.45 234.85 122.75 232.25 81.25 244.45 M 76.15 159.25 Q 55.8 160.5 52.25 170.75 48.65 181.05 63.95 194.55 79.2 208 104.3 216.65 129.5 225.3 149.8 224.05 168.5 223 172.95 214.1 168.55 226.45 181.05 240 193.7 254 216.2 260.95 238.6 267.9 257.85 263.95 276.95 260.05 281.6 247.4 286.3 234.9 273.7 220.9 261.1 207.1 238.6 200.1 216.15 193.2 196.95 197.1 178.9 200.95 173.75 212.35 176.95 202.05 161.9 188.75 146.65 175.4 121.5 166.7 96.45 158.05 76.15 159.25 M 155.15 199.3 Q 156.05 199.65 157 200.05 161.95 202.2 164.65 205.6 167.3 208.95 166.1 211.6 164.95 214.3 160.7 214.6 156.4 214.95 151.5 212.8 148 211.35 145.7 209.3 144.65 208.35 143.8 207.3 141.15 203.95 142.25 201.25 143.45 198.6 147.8 198.25 151.15 197.95 155.15 199.3 M 224.35 225.75 Q 226.95 229.2 225.85 231.85 224.7 234.45 220.4 234.8 216.15 235.1 211.15 232.95 206.2 230.85 203.6 227.5 201.95 225.4 201.75 223.6 201.6 222.45 202.05 221.5 203.2 218.9 207.45 218.4 208.95 218.35 210.5 218.5 213.45 218.9 216.65 220.25 221.65 222.4 224.35 225.75 Z"
         id="path22" />
    </g>
    <g
       id="Layer1_0_FILL">
      <path
         fill="#FFFFFF"
         stroke="none"
         d=" M 351.4 717.7 L 359.35 741.05 359.35 769.1 398.55 836.25 403.55 833.45 475.9 770.2 468.5 732.6 475 707.7 351.4 717.7 M 303.15 546.45 L 313.55 631.4 478.7 615.35 468.45 524.7 303.15 546.45 M 403.15 587.2 L 395.5 549.05 428.7 547.05 438.2 579.2 403.15 587.2 M 351.85 572.7 L 388.25 558.25 395.75 596.35 355.3 604.65 351.85 572.7 M 229.6 665.45 L 236.9 701.3 569.1 671.6 569.1 629.05 229.6 665.45 Z"
         id="path25" />
      <path
         fill="#000000"
         stroke="none"
         d=" M 238.6 570.6 L 229.6 579.05 229.6 605.25 287.3 597.95 293.25 633.4 207.9 641.6 218.4 728.5 321.7 720.05 329.65 748.35 359.35 741.05 351.4 717.7 475 707.7 468.5 732.6 495.45 732.6 503.6 705.35 598.7 697.65 589.3 641.6 577.6 626.2 584.7 614.05 583.25 605.2 497 613.6 496.95 570.75 540.3 568.5 540.3 536 508.45 541.35 500.3 549.8 473.85 503.15 406.45 507.75 407.5 435.05 373.3 444.15 366.15 450.85 374.85 509.95 297.6 515.2 276.75 534.8 281.4 562.6 238.6 570.6 M 236.9 701.3 L 229.6 665.45 569.1 629.05 569.1 671.6 236.9 701.3 M 313.55 631.4 L 303.15 546.45 468.45 524.7 478.7 615.35 313.55 631.4 M 388.25 558.25 L 351.85 572.7 355.3 604.65 395.75 596.35 388.25 558.25 M 395.5 549.05 L 403.15 587.2 438.2 579.2 428.7 547.05 395.5 549.05 Z"
         id="path27" />
    </g>
    <g
       id="Symbol_1_0_Layer2_0_FILL">
      <path
         fill="#ED7CB0"
         stroke="none"
         d=" M 99.3 39.85 L 84.6 7.4 56.4 0 0 103 38.6 99.95 72.4 31.95 95 73.6 130.3 41.6 152.05 107.3 186.35 103 147.15 3.1 120.15 11.05 99.3 39.85 Z"
         id="path30" />
    </g>
    <g
       id="Symbol_1_0_Layer1_0_FILL">
      <path
         fill="#ED7CB0"
         stroke="none"
         d=" M 99.3 39.85 L 84.6 7.4 56.4 0 0 103 38.6 99.95 72.4 31.95 95 73.6 130.3 41.6 152.05 107.3 186.35 103 147.15 3.1 120.15 11.05 99.3 39.85 Z"
         id="path33" />
    </g>
    <g
       id="Symbol_1_0_Layer0_0_FILL">
      <path
         fill="#48BBE1"
         stroke="none"
         d=" M 0 103 L 38.6 99.95 72.4 31.95 84.6 7.4 56.4 0 0 103 Z"
         id="path36" />
      <path
         fill="#ED7CB0"
         stroke="none"
         d=" M 147.15 3.1 L 120.15 11.05 130.3 41.6 152.05 107.3 186.35 103 147.15 3.1 Z"
         id="path38" />
      <path
         fill="#7AEC3B"
         stroke="none"
         d=" M 99.3 39.85 L 84.6 7.4 72.4 31.95 95 73.6 130.3 41.6 120.15 11.05 99.3 39.85 Z"
         id="path40" />
    </g>
    <path
       id="Layer3_0_1_STROKES"
       stroke="#FFFFFF"
       stroke-width="5"
       stroke-linejoin="miter"
       stroke-linecap="round"
       stroke-miterlimit="60"
       fill="none"
       d=" M 741.4 67.55 Q 737.9 65.5 734.5 64.05 708.7 52 684.25 62.6 630.7 85.5 583.5 215.85 M 552.8 314.45 Q 548.75 329.25 544.8 344.85 L 525.7 320.4 M 552.8 314.45 Q 567.75 259.15 583.5 215.85" />
    <path
       id="Layer3_0_2_STROKES"
       stroke="#FFFFFF"
       stroke-width="5"
       stroke-linejoin="round"
       stroke-linecap="round"
       fill="none"
       d=" M 607.8 323.95 Q 607.8 330.15 603.45 334.55 599 338.9 592.75 338.9 586.55 338.9 582.15 334.55 577.8 330.15 577.8 323.95 577.8 317.7 582.15 313.25 586.55 308.9 592.75 308.9 599 308.9 603.45 313.25 607.8 317.7 607.8 323.95 Z" />
    <path
       id="Layer2_0_1_STROKES"
       stroke="#FFFFFF"
       stroke-width="5"
       stroke-linejoin="miter"
       stroke-linecap="round"
       stroke-miterlimit="60"
       fill="none"
       d=" M 197.55 167.55 L 183.2 186.65 307.85 201.8 M 79.8 100.4 Q 250.55 40 188 139.4" />
    <path
       id="Layer1_0_1_STROKES"
       stroke="#FFFFFF"
       stroke-width="5"
       stroke-linejoin="miter"
       stroke-linecap="round"
       stroke-miterlimit="60"
       fill="none"
       d=" M 229.6 665.45 L 236.9 701.3 569.1 671.6 569.1 629.05 229.6 665.45 Z M 395.5 549.05 L 403.15 587.2 438.2 579.2 428.7 547.05 395.5 549.05 Z M 351.85 572.7 L 355.3 604.65 395.75 596.35 388.25 558.25 351.85 572.7 Z" />
    <path
       id="Symbol_1_0_Layer2_0_1_STROKES"
       stroke="#FFFFFF"
       stroke-width="16.7"
       stroke-linejoin="miter"
       stroke-linecap="round"
       stroke-miterlimit="60"
       fill="none"
       d=" M 120.15 11.05 L 99.3 39.85 84.6 7.4 56.4 0 0 103 38.6 99.95 72.4 31.95 95 73.6 130.3 41.6 152.05 107.3 186.35 103 147.15 3.1 120.15 11.05 Z" />
    <path
       id="Symbol_1_0_Layer1_0_1_STROKES"
       stroke="#000000"
       stroke-width="10.85"
       stroke-linejoin="miter"
       stroke-linecap="round"
       stroke-miterlimit="60"
       fill="none"
       d=" M 120.15 11.05 L 99.3 39.85 84.6 7.4 56.4 0 0 103 38.6 99.95 72.4 31.95 95 73.6 130.3 41.6 152.05 107.3 186.35 103 147.15 3.1 120.15 11.05 Z" />
  </defs>
  <g
     transform="matrix( 1, 0, 0, 1, 0,0) "
     id="g53">
    <use
       xlink:href="#Layer6_0_FILL"
       id="use51" />
  </g>
  <g
     transform="matrix( 1, 0, 0, 1, 0,0) "
     id="g57">
    <use
       xlink:href="#Layer5_0_FILL"
       id="use55" />
  </g>
  <g
     transform="matrix( 1, 0, 0, 1, 0,0) "
     id="g61">
    <use
       xlink:href="#Layer4_0_FILL"
       id="use59" />
  </g>
  <g
     transform="matrix( 1, 0, 0, 1, 0,0) "
     id="g69">
    <use
       xlink:href="#Layer3_0_FILL"
       id="use63" />
    <use
       xlink:href="#Layer3_0_1_STROKES"
       id="use65" />
    <use
       xlink:href="#Layer3_0_2_STROKES"
       id="use67" />
  </g>
  <g
     transform="matrix( 1, 0, 0, 1, 0,0) "
     id="g75">
    <use
       xlink:href="#Layer2_0_FILL"
       id="use71" />
    <use
       xlink:href="#Layer2_0_1_STROKES"
       id="use73" />
  </g>
  <g
     transform="matrix( 1, 0, 0, 1, 0,0) "
     id="g81">
    <use
       xlink:href="#Layer1_0_FILL"
       id="use77" />
    <use
       xlink:href="#Layer1_0_1_STROKES"
       id="use79" />
  </g>
  <use
     xlink:href="#Symbol_1_0_Layer2_0_FILL"
     id="use83"
     x="0"
     y="0"
     width="100%"
     height="100%"
     transform="matrix(1.2872467,0,0,1.2872467,278.45,334.6)" />
  <use
     xlink:href="#Symbol_1_0_Layer2_0_1_STROKES"
     id="use85"
     x="0"
     y="0"
     width="100%"
     height="100%"
     transform="matrix(1.2872467,0,0,1.2872467,278.45,334.6)" />
  <use
     xlink:href="#Symbol_1_0_Layer1_0_FILL"
     id="use89"
     x="0"
     y="0"
     width="100%"
     height="100%"
     transform="matrix(1.2872467,0,0,1.2872467,278.45,334.6)" />
  <path
     d="M 433.11269,348.82408 406.2736,385.89678 387.35107,344.12563 351.05071,334.6 278.45,467.18641 l 49.68772,-3.9261 43.50894,-87.53278 29.09178,53.61383 45.43981,-41.1919 27.99761,84.57211 44.15256,-5.53516 -50.46007,-128.59595 z"
     stroke-miterlimit="60"
     id="use91"
     inkscape:connector-curvature="0"
     style="fill:none;stroke:#000000;stroke-width:13.96662712;stroke-linecap:round;stroke-linejoin:miter;stroke-miterlimit:60" />
  <path
     style="fill:#48bbe1;stroke:none;stroke-width:1.2872467"
     inkscape:connector-curvature="0"
     d="m 278.45,467.18641 49.68772,-3.9261 43.50894,-87.53278 15.70441,-31.6019 L 351.05071,334.6 Z"
     id="path925" />
  <path
     style="fill:#ed7cb0;stroke:none;stroke-width:1.2872467"
     inkscape:connector-curvature="0"
     d="m 467.86835,338.59046 -34.75566,10.23362 13.06556,39.32538 27.99761,84.57211 44.15256,-5.53516 z"
     id="path927" />
  <path
     style="fill:#7aec3b;stroke:none;stroke-width:1.2872467"
     inkscape:connector-curvature="0"
     d="m 406.2736,385.89678 -18.92253,-41.77115 -15.70441,31.6019 29.09178,53.61383 45.43981,-41.1919 -13.06556,-39.32538 z"
     id="path929" />
</svg>
